<?xml version="1.0" encoding="utf-8"?>
<!-- Generator: Adobe Illustrator 16.0.0, SVG Export Plug-In . SVG Version: 6.00 Build 0)  -->
<!DOCTYPE svg PUBLIC "-//W3C//DTD SVG 1.1//EN" "http://www.w3.org/Graphics/SVG/1.1/DTD/svg11.dtd">
<svg version="1.1" id="Layer_1" xmlns="http://www.w3.org/2000/svg" xmlns:xlink="http://www.w3.org/1999/xlink" x="0px" y="0px"
	 width="288px" height="288px" viewBox="0 0 288 288" enable-background="new 0 0 288 288" xml:space="preserve">
<g>
	<polygon fill="#B3B3B3" points="143.564,0 8.063,47.686 29.475,225.216 143.708,288 258.529,224.365 279.938,46.842 	"/>
	<polygon fill="#3E3E3E" points="266.419,57.102 143.248,15.1 143.248,272.998 246.47,215.872 	"/>
	<polygon fill="#555555" points="23.268,57.859 41.615,216.631 143.246,272.998 143.246,15.094 	"/>
	<path fill="#F2F2F2" d="M177.152,152.391l-33.905,15.856h-35.734l-16.798,42.015l-31.246,0.579l83.779-186.377L177.152,152.391z
		 M173.876,144.41l-30.404-60.188l-24.936,59.152h24.71L173.876,144.41z"/>
	<polygon fill="#B3B3B3" points="143.246,24.464 143.471,84.223 171.77,143.421 143.309,143.421 143.246,168.21 182.596,168.247 
		200.986,210.848 230.884,211.398 	"/>
</g>
</svg>
