<?xml version="1.0" encoding="utf-8"?>
<!-- Generator: Adobe Illustrator 16.0.0, SVG Export Plug-In . SVG Version: 6.00 Build 0)  -->
<!DOCTYPE svg PUBLIC "-//W3C//DTD SVG 1.1//EN" "http://www.w3.org/Graphics/SVG/1.1/DTD/svg11.dtd">
<svg version="1.1" id="Layer_1" xmlns="http://www.w3.org/2000/svg" xmlns:xlink="http://www.w3.org/1999/xlink" x="0px" y="0px"
	 width="288px" height="288px" viewBox="0 0 288 288" enable-background="new 0 0 288 288" xml:space="preserve">
<g id="solid" xmlns:svg="http://www.w3.org/2000/svg" xmlns:dc="http://purl.org/dc/elements/1.1/" xmlns:cc="http://creativecommons.org/ns#" xmlns:rdf="http://www.w3.org/1999/02/22-rdf-syntax-ns#" xmlns:sodipodi="http://sodipodi.sourceforge.net/DTD/sodipodi-0.dtd" xmlns:inkscape="http://www.inkscape.org/namespaces/inkscape" sodipodi:docname="twitter_bootstrap_logo.svg" inkscape:version="0.48.1 r9760">
	<path id="bg" fill="#563D7C" d="M288,240c0,26.4-21.6,48-48,48H48c-26.4,0-48-21.6-48-48V48C0,21.6,21.6,0,48,0h192
		c26.4,0,48,21.6,48,48V240z"/>
	<g id="B" enable-background="new    ">
		<path fill="#FFFFFF" d="M78.259,62.588h81.647c15.059,0,27.152,3.435,36.234,10.353c9.083,6.917,13.647,17.317,13.647,31.294
			c0,8.471-2.07,15.718-6.212,21.741c-4.141,6.023-10.07,10.729-17.788,14.023v0.471c10.353,2.212,18.212,7.105,23.53,14.682
			c5.316,7.624,8,17.13,8,28.612c0,6.589-1.178,12.753-3.53,18.447c-2.353,5.741-6.023,10.683-11.059,14.823
			s-11.436,7.436-19.294,9.883c-7.859,2.447-17.177,3.67-28,3.67H78.259V62.588L78.259,62.588z M107.67,132.941h48
			c7.06,0,12.941-1.977,17.648-6.024c4.705-4.047,7.059-9.788,7.059-17.317c0-8.471-2.118-14.447-6.354-17.882
			c-4.235-3.436-10.354-5.177-18.354-5.177h-48V132.941L107.67,132.941z M107.67,206.588h52c8.941,0,15.906-2.306,20.801-6.965
			c4.941-4.611,7.436-11.199,7.436-19.67c0-8.33-2.447-14.683-7.436-19.2s-11.859-6.683-20.801-6.683h-52V206.588z"/>
	</g>
</g>
</svg>
