<?xml version="1.0" encoding="utf-8"?>
<!-- Generator: Adobe Illustrator 16.0.0, SVG Export Plug-In . SVG Version: 6.00 Build 0)  -->
<!DOCTYPE svg PUBLIC "-//W3C//DTD SVG 1.1//EN" "http://www.w3.org/Graphics/SVG/1.1/DTD/svg11.dtd">
<svg version="1.1" id="Layer_1" xmlns="http://www.w3.org/2000/svg" xmlns:xlink="http://www.w3.org/1999/xlink" x="0px" y="0px"
	 width="288px" height="288px" viewBox="0 0 288 288" enable-background="new 0 0 288 288" xml:space="preserve">
<g>
	<path fill="#7D7D7D" d="M282.756,131.157L156.842,5.246c-7.248-7.253-19.008-7.253-26.267,0l-26.143,26.151l33.165,33.167
		c7.708-2.605,16.545-0.856,22.687,5.289c6.183,6.184,7.914,15.097,5.241,22.833l31.971,31.966
		c7.735-2.667,16.654-0.941,22.834,5.246c8.631,8.631,8.631,22.614,0,31.254c-8.638,8.631-22.623,8.631-31.266,0
		c-6.488-6.497-8.096-16.04-4.803-24.037l-29.816-29.813v78.455c2.104,1.043,4.089,2.428,5.839,4.182
		c8.632,8.631,8.632,22.613,0,31.256c-8.631,8.625-22.625,8.625-31.25,0c-8.631-8.643-8.631-22.631,0-31.256
		c2.136-2.133,4.607-3.745,7.243-4.824v-79.19c-2.636-1.08-5.1-2.677-7.243-4.824c-6.538-6.534-8.11-16.132-4.757-24.159
		l-32.693-32.7L5.246,130.574c-7.255,7.259-7.255,19.021,0,26.274l125.92,125.906c7.249,7.252,19.004,7.252,26.266,0
		l125.324-125.324C290.01,150.173,290.01,138.407,282.756,131.157z"/>
</g>
</svg>
