<?xml version="1.0" encoding="utf-8"?>
<!-- Generator: Adobe Illustrator 16.0.0, SVG Export Plug-In . SVG Version: 6.00 Build 0)  -->
<!DOCTYPE svg PUBLIC "-//W3C//DTD SVG 1.1//EN" "http://www.w3.org/Graphics/SVG/1.1/DTD/svg11.dtd">
<svg version="1.1" id="Layer_1" xmlns="http://www.w3.org/2000/svg" xmlns:xlink="http://www.w3.org/1999/xlink" x="0px" y="0px"
	 width="288px" height="288px" viewBox="0 0 288 288" enable-background="new 0 0 288 288" xml:space="preserve">
<g>
	<title>HTML5 Logo</title>
	<polygon fill="#767676" points="40.138,260.842 17.027,1.632 270.973,1.632 247.838,260.803 143.844,289.632 	"/>
	<polygon fill="#888888" points="144,267.596 228.032,244.299 247.802,22.826 144,22.826 	"/>
	<polygon fill="#EBEBEB" points="144,118.964 101.932,118.964 99.026,86.409 144,86.409 144,54.617 143.891,54.617 64.282,54.617 
		65.044,63.146 72.857,150.754 144,150.754 	"/>
	<polygon fill="#EBEBEB" points="144,201.529 143.861,201.564 108.453,192.007 106.191,166.65 88.986,166.65 74.277,166.65 
		78.732,216.566 143.853,234.643 144,234.605 	"/>
	<polygon fill="#FFFFFF" points="143.891,118.964 143.891,150.754 183.037,150.754 179.348,191.986 143.891,201.555 
		143.891,234.629 209.064,216.566 209.54,211.197 217.014,127.498 217.788,118.964 209.223,118.964 	"/>
	<polygon fill="#FFFFFF" points="143.891,54.617 143.891,74.363 143.891,86.331 143.891,86.409 220.579,86.409 220.579,86.409 
		220.682,86.409 221.316,79.263 222.768,63.146 223.527,54.617 	"/>
</g>
</svg>
