<?xml version="1.0" encoding="utf-8"?>
<!-- Generator: Adobe Illustrator 16.0.0, SVG Export Plug-In . SVG Version: 6.00 Build 0)  -->
<!DOCTYPE svg PUBLIC "-//W3C//DTD SVG 1.1//EN" "http://www.w3.org/Graphics/SVG/1.1/DTD/svg11.dtd">
<svg version="1.1" id="Layer_1" xmlns="http://www.w3.org/2000/svg" xmlns:xlink="http://www.w3.org/1999/xlink" x="0px" y="0px"
	 width="288px" height="288px" viewBox="0 0 288 288" enable-background="new 0 0 288 288" xml:space="preserve">
<g>
	<path fill="#535353" d="M18.246,75.622c-25.508,36.666-22.331,84.365-2.849,123.324c0.464,0.933,0.952,1.851,1.43,2.768
		c0.305,0.584,0.592,1.185,0.911,1.755c0.18,0.344,0.382,0.682,0.569,1.012c0.332,0.619,0.671,1.209,1.015,1.814
		c0.607,1.07,1.226,2.131,1.862,3.189c0.353,0.582,0.696,1.166,1.062,1.748c0.702,1.137,1.422,2.257,2.16,3.378
		c0.305,0.479,0.607,0.96,0.918,1.422c1.015,1.512,2.052,3.026,3.126,4.514c0.026,0.039,0.057,0.081,0.086,0.117
		c0.17,0.239,0.355,0.472,0.529,0.707c0.927,1.28,1.88,2.542,2.848,3.79c0.355,0.455,0.715,0.912,1.073,1.367
		c0.864,1.08,1.743,2.16,2.634,3.236c0.334,0.399,0.668,0.809,1.007,1.203c1.199,1.411,2.42,2.815,3.669,4.189
		c0.021,0.023,0.051,0.053,0.072,0.076c0.054,0.061,0.099,0.094,0.14,0.154c1.22,1.33,2.47,2.631,3.73,3.93
		c0.392,0.402,0.792,0.809,1.195,1.207c0.98,0.984,1.972,1.955,2.977,2.922c0.408,0.388,0.813,0.783,1.221,1.154
		c1.338,1.265,2.695,2.502,4.079,3.715c0.024,0.021,0.041,0.039,0.062,0.054c0.237,0.209,0.479,0.405,0.713,0.604
		c1.216,1.056,2.456,2.102,3.706,3.127c0.508,0.416,1.022,0.816,1.533,1.226c1.019,0.813,2.051,1.621,3.09,2.414
		c0.55,0.419,1.1,0.835,1.653,1.257c1.148,0.84,2.302,1.672,3.467,2.484c0.426,0.313,0.837,0.605,1.264,0.896
		c0.12,0.082,0.228,0.17,0.346,0.247c1.106,0.763,2.239,1.494,3.366,2.229c0.487,0.322,0.967,0.66,1.458,0.97
		c1.731,1.099,3.491,2.183,5.27,3.231c0.483,0.274,0.97,0.545,1.458,0.82c1.306,0.752,2.621,1.493,3.955,2.221
		c0.719,0.391,1.46,0.754,2.19,1.127c0.939,0.494,1.871,0.991,2.831,1.472c0.217,0.106,0.442,0.211,0.655,0.315
		c0.385,0.189,0.771,0.364,1.156,0.563c1.482,0.703,2.979,1.402,4.486,2.074c0.323,0.146,0.631,0.285,0.951,0.428
		c1.727,0.755,3.472,1.48,5.233,2.175c0.422,0.179,0.849,0.337,1.276,0.502c1.629,0.628,3.282,1.247,4.941,1.832
		c0.206,0.071,0.409,0.146,0.617,0.213c1.821,0.64,3.658,1.228,5.508,1.808c0.44,0.127,0.887,0.269,1.331,0.396
		c1.883,0.567,3.742,1.244,5.688,1.604c123.362,22.498,159.198-74.135,159.198-74.135c-30.105,39.203-83.521,49.547-134.139,38.03
		c-1.916-0.435-3.776-1.03-5.65-1.583c-0.475-0.141-0.94-0.287-1.407-0.431c-1.827-0.56-3.64-1.147-5.44-1.771
		c-0.248-0.086-0.495-0.18-0.746-0.269c-1.611-0.567-3.208-1.166-4.794-1.779c-0.45-0.179-0.899-0.347-1.346-0.529
		c-1.74-0.688-3.47-1.404-5.177-2.15c-0.353-0.149-0.689-0.309-1.032-0.455c-1.471-0.664-2.926-1.34-4.371-2.031
		c-0.419-0.201-0.834-0.396-1.263-0.605c-1.138-0.556-2.258-1.143-3.377-1.719c-0.752-0.396-1.514-0.77-2.258-1.186
		c-1.369-0.729-2.709-1.492-4.048-2.268c-0.452-0.254-0.912-0.5-1.366-0.763c-1.779-1.051-3.536-2.131-5.276-3.233
		c-0.478-0.306-0.948-0.633-1.422-0.946c-1.261-0.816-2.516-1.642-3.751-2.497c-0.41-0.275-0.807-0.572-1.21-0.846
		c-1.193-0.844-2.373-1.7-3.547-2.563c-0.532-0.399-1.055-0.799-1.571-1.194c-1.075-0.82-2.144-1.648-3.203-2.498
		c-0.477-0.379-0.956-0.763-1.425-1.144c-1.345-1.108-2.675-2.222-3.987-3.364c-0.14-0.119-0.29-0.236-0.439-0.367
		c-1.42-1.242-2.812-2.521-4.193-3.81c-0.401-0.383-0.788-0.751-1.181-1.134c-1.02-0.971-2.026-1.95-3.012-2.955
		c-0.395-0.395-0.792-0.781-1.181-1.178c-1.255-1.286-2.487-2.588-3.696-3.906c-0.06-0.066-0.123-0.126-0.182-0.194
		c-1.277-1.396-2.526-2.825-3.752-4.266c-0.328-0.4-0.651-0.779-0.979-1.167c-0.915-1.098-1.817-2.212-2.7-3.335
		c-0.328-0.4-0.66-0.817-0.985-1.229c-1.064-1.379-2.101-2.754-3.117-4.148c-28.1-38.333-38.195-91.199-15.736-134.619"/>
	<path fill="#535353" d="M97.429,44.734c-18.45,26.545-17.45,62.084-3.059,90.16c2.416,4.708,5.125,9.273,8.16,13.622
		c2.761,3.961,5.825,8.672,9.493,11.859c1.334,1.467,2.724,2.893,4.144,4.297c0.356,0.368,0.723,0.715,1.088,1.077
		c1.377,1.338,2.779,2.653,4.229,3.931c0.063,0.045,0.114,0.104,0.173,0.147c0.015,0.017,0.03,0.021,0.04,0.043
		c1.603,1.405,3.255,2.756,4.939,4.085c0.374,0.284,0.744,0.581,1.12,0.873c1.686,1.294,3.402,2.564,5.165,3.773
		c0.055,0.037,0.099,0.076,0.148,0.115c0.778,0.536,1.573,1.036,2.358,1.553c0.381,0.246,0.735,0.51,1.115,0.738
		c1.26,0.807,2.537,1.594,3.83,2.348c0.185,0.113,0.364,0.209,0.544,0.314c1.115,0.643,2.246,1.276,3.384,1.893
		c0.393,0.219,0.799,0.418,1.204,0.629c0.783,0.41,1.568,0.826,2.367,1.221c0.121,0.061,0.242,0.111,0.359,0.164
		c1.625,0.803,3.268,1.572,4.938,2.3c0.359,0.162,0.73,0.302,1.09,0.449c1.338,0.567,2.688,1.123,4.049,1.644
		c0.578,0.219,1.156,0.428,1.732,0.637c1.23,0.455,2.469,0.875,3.717,1.293c0.564,0.181,1.119,0.365,1.682,0.539
		c1.775,0.552,3.527,1.246,5.373,1.555c95.25,15.779,117.24-57.555,117.24-57.555c-19.822,28.551-58.211,42.168-99.172,31.538
		c-1.82-0.478-3.613-1-5.396-1.562c-0.545-0.164-1.08-0.345-1.621-0.524c-1.268-0.408-2.525-0.846-3.775-1.299
		c-0.57-0.21-1.145-0.419-1.703-0.639c-1.367-0.521-2.719-1.066-4.061-1.639c-0.369-0.152-0.738-0.297-1.094-0.461
		c-1.68-0.729-3.336-1.5-4.973-2.308c-0.838-0.411-1.664-0.843-2.488-1.271c-0.479-0.25-0.959-0.494-1.438-0.741
		c-1.063-0.574-2.117-1.171-3.154-1.775c-0.248-0.143-0.506-0.278-0.756-0.427c-1.287-0.757-2.559-1.529-3.818-2.332
		c-0.391-0.247-0.764-0.516-1.152-0.77c-0.826-0.537-1.656-1.084-2.469-1.637c-1.76-1.211-3.471-2.48-5.148-3.762
		c-0.391-0.309-0.779-0.605-1.158-0.915c-17.93-14.158-32.143-33.5-38.9-55.437c-7.081-22.753-5.554-48.291,6.715-69.017"/>
	<path fill="#535353" d="M164.025,21.655c-10.871,16.005-11.943,35.883-4.4,53.558c7.959,18.759,24.266,33.482,43.297,40.461
		c0.783,0.289,1.57,0.553,2.365,0.821c0.346,0.105,0.691,0.225,1.041,0.329c1.119,0.35,2.234,0.762,3.391,0.977
		c52.598,10.162,66.859-26.984,70.654-32.455c-12.494,17.994-33.492,22.312-59.26,16.059c-2.033-0.496-4.273-1.231-6.232-1.925
		c-2.516-0.899-4.994-1.921-7.402-3.078c-4.576-2.197-8.938-4.865-12.98-7.919c-23.059-17.493-37.381-50.868-22.336-78.047"/>
</g>
</svg>
