<?xml version="1.0" encoding="utf-8"?>
<!-- Generator: Adobe Illustrator 16.0.0, SVG Export Plug-In . SVG Version: 6.00 Build 0)  -->
<!DOCTYPE svg PUBLIC "-//W3C//DTD SVG 1.1//EN" "http://www.w3.org/Graphics/SVG/1.1/DTD/svg11.dtd">
<svg version="1.1" id="Layer_1" xmlns="http://www.w3.org/2000/svg" xmlns:xlink="http://www.w3.org/1999/xlink" x="0px" y="0px"
	 width="288px" height="288px" viewBox="0 0 288 288" enable-background="new 0 0 288 288" xml:space="preserve">
<rect fill="#D1D1D1" width="288" height="288"/>
<path fill="#2E2E2E" d="M193.463,225.001c5.801,9.472,13.35,16.435,26.697,16.435c11.213,0,18.377-5.604,18.377-13.349
	c0-9.28-7.359-12.567-19.703-17.966l-6.766-2.902c-19.529-8.32-32.502-18.742-32.502-40.777c0-20.297,15.465-35.749,39.634-35.749
	c17.206,0,29.577,5.989,38.491,21.668l-21.074,13.531c-4.641-8.319-9.646-11.598-17.417-11.598c-7.927,0-12.951,5.028-12.951,11.598
	c0,8.119,5.028,11.406,16.64,16.435l6.766,2.897c22.996,9.861,35.979,19.914,35.979,42.516c0,24.365-19.141,37.714-44.846,37.714
	c-25.135,0-41.371-11.978-49.316-27.675L193.463,225.001z M97.86,227.346c4.251,7.543,8.119,13.92,17.417,13.92
	c8.891,0,14.5-3.479,14.5-17.005v-92.023h27.063v92.389c0,28.021-16.43,40.775-40.412,40.775c-21.668,0-34.217-11.213-40.599-24.719
	L97.86,227.346z"/>
</svg>
