<?xml version="1.0" encoding="utf-8"?>
<!-- Generator: Adobe Illustrator 16.0.0, SVG Export Plug-In . SVG Version: 6.00 Build 0)  -->
<!DOCTYPE svg PUBLIC "-//W3C//DTD SVG 1.1//EN" "http://www.w3.org/Graphics/SVG/1.1/DTD/svg11.dtd">
<svg version="1.1" id="Layer_1" xmlns="http://www.w3.org/2000/svg" xmlns:xlink="http://www.w3.org/1999/xlink" x="0px" y="0px"
	 width="288px" height="288px" viewBox="0 0 288 288" enable-background="new 0 0 288 288" xml:space="preserve">
<g id="g3" transform="matrix(0.9869271,0,0,0.99106002,3.5008005,0.90716963)">
	<path id="path5" inkscape:connector-curvature="0" fill="#62BC47" d="M25.828,70.607c0.03-0.05,0.062-0.099,0.094-0.146
		c5.169-7.959,13.324-12.618,20.992-12.618c7.808,0,12.717,4.28,19.171,4.28c6.263,0,10.078-4.287,19.105-4.287
		c6.821,0,14.052,3.714,19.203,10.137c-1.424,0.78-2.709,1.666-3.857,2.639L25.828,70.607L25.828,70.607L25.828,70.607z"/>
	<path id="path7" inkscape:connector-curvature="0" fill="#62BC47" d="M78.343,50.665c3.277-4.209,5.769-10.15,4.866-16.226
		c-5.358,0.367-11.624,3.778-15.284,8.218c-3.321,4.034-6.063,10.016-4.995,15.827C68.778,58.667,74.829,55.174,78.343,50.665
		L78.343,50.665L78.343,50.665z"/>
	<path id="path9" sodipodi:nodetypes="ccccccc" inkscape:connector-curvature="0" fill="#FDB826" d="M25.561,70.49
		c-2.226,3.488-3.767,8.487-4.176,12.871l72.223-0.002c0.781-4.797,3.377-9.38,7.492-12.864L25.561,70.49h0.004H25.561z"/>
	<path id="path11" inkscape:connector-curvature="0" fill="#F58220" d="M22.042,96.119c-0.702-4.478-0.815-8.796-0.375-12.757
		l71.66-0.001c-0.701,4.296-0.112,8.766,1.66,12.762L22.042,96.119L22.042,96.119L22.042,96.119z"/>
	<path id="path13" inkscape:connector-curvature="0" fill="#E03B3F" d="M25.544,108.875c-1.692-4.286-2.851-8.59-3.502-12.756
		l72.946,0.003c2.258,5.091,6.437,9.417,12.322,11.64c-0.174,0.389-0.343,0.76-0.506,1.119L25.544,108.875L25.544,108.875
		L25.544,108.875z"/>
	<path id="path15" inkscape:connector-curvature="0" fill="#963F98" d="M106.804,108.88c-2.021,4.442-3.191,6.747-5.987,11.003
		c-0.376,0.571-0.765,1.156-1.17,1.746l-67.333,0.006c-0.215-0.321-0.429-0.642-0.64-0.961c-2.517-3.834-4.555-7.81-6.13-11.8
		L106.804,108.88L106.804,108.88z"/>
	<path id="path19" inkscape:connector-curvature="0" fill="#139CD8" d="M99.647,121.629c-4.119,6.033-9.649,12.673-16.358,12.736
		c-6.548,0.06-8.227-4.261-17.11-4.212c-8.883,0.05-10.738,4.287-17.285,4.226c-7-0.065-12.436-6.586-16.58-12.744L99.647,121.629
		L99.647,121.629z"/>
</g>
</svg>
