<?xml version="1.0" encoding="utf-8"?>
<!-- Generator: Adobe Illustrator 16.0.0, SVG Export Plug-In . SVG Version: 6.00 Build 0)  -->
<!DOCTYPE svg PUBLIC "-//W3C//DTD SVG 1.1//EN" "http://www.w3.org/Graphics/SVG/1.1/DTD/svg11.dtd">
<svg version="1.1" id="Layer_3" xmlns="http://www.w3.org/2000/svg" xmlns:xlink="http://www.w3.org/1999/xlink" x="0px" y="0px"
	 width="288px" height="288px" viewBox="0 0 288 288" enable-background="new 0 0 288 288" xml:space="preserve">
<path fill="#767BB6" d="M288,252c0,19.882-16.118,36-36,36H36c-19.882,0-36-16.118-36-36V36C0,16.118,16.118,0,36,0h216
	c19.882,0,36,16.118,36,36V252z"/>
<g>
	<path fill="#FFFFFF" d="M74.18,125.618c7.27,0,12.114,1.341,14.537,4.025c2.42,2.684,2.997,7.291,1.73,13.819
		c-1.323,6.799-3.87,11.651-7.646,14.559c-3.777,2.907-9.522,4.36-17.238,4.36H53.924l7.145-36.763H74.18z M27.557,199.597h19.135
		l4.539-23.354h16.39c7.231,0,13.181-0.757,17.852-2.279c4.67-1.518,8.915-4.065,12.736-7.641c3.207-2.948,5.801-6.199,7.788-9.754
		c1.984-3.553,3.394-7.474,4.228-11.764c2.025-10.413,0.497-18.523-4.58-24.333c-5.076-5.81-13.15-8.715-24.22-8.715H44.63
		L27.557,199.597z"/>
	<path fill="#FFFFFF" d="M124.278,88.403h18.984l-4.538,23.354h16.913c10.641,0,17.981,1.857,22.021,5.567
		c4.039,3.713,5.25,9.728,3.635,18.043l-7.944,40.876h-19.286l7.553-38.865c0.859-4.421,0.544-7.437-0.949-9.045
		s-4.668-2.414-9.525-2.414h-15.173l-9.78,50.324h-18.985L124.278,88.403z"/>
	<path fill="#FFFFFF" d="M223.533,125.618c7.27,0,12.115,1.341,14.538,4.025c2.42,2.684,2.996,7.291,1.73,13.819
		c-1.323,6.799-3.87,11.651-7.646,14.559c-3.777,2.907-9.523,4.36-17.238,4.36h-11.639l7.145-36.763H223.533z M176.91,199.597
		h19.135l4.538-23.354h16.391c7.232,0,13.182-0.757,17.852-2.279c4.67-1.518,8.915-4.065,12.737-7.641
		c3.207-2.948,5.8-6.199,7.787-9.754c1.986-3.553,3.395-7.474,4.229-11.764c2.025-10.413,0.497-18.523-4.579-24.333
		s-13.15-8.715-24.22-8.715h-36.795L176.91,199.597z"/>
</g>
</svg>
