<?xml version="1.0" encoding="utf-8"?>
<!-- Generator: Adobe Illustrator 16.0.0, SVG Export Plug-In . SVG Version: 6.00 Build 0)  -->
<!DOCTYPE svg PUBLIC "-//W3C//DTD SVG 1.1//EN" "http://www.w3.org/Graphics/SVG/1.1/DTD/svg11.dtd">
<svg version="1.1" id="Layer_1" xmlns="http://www.w3.org/2000/svg" xmlns:xlink="http://www.w3.org/1999/xlink" x="0px" y="0px"
	 width="288px" height="288px" viewBox="0 0 288 288" enable-background="new 0 0 288 288" xml:space="preserve">
<g>
	
		<linearGradient id="SVGID_1_" gradientUnits="userSpaceOnUse" x1="173.8877" y1="24.4893" x2="438.7151" y2="-240.3381" gradientTransform="matrix(1 0 0 -1 -162 37)">
		<stop  offset="0" style="stop-color:#383838"/>
		<stop  offset="1" style="stop-color:#2E2E2E"/>
	</linearGradient>
	<rect x="11.446" y="12.951" opacity="0.95" fill="url(#SVGID_1_)" enable-background="new    " width="265.708" height="263.945"/>
	<g>
		
			<image overflow="visible" width="1238" height="1238" xlink:href="7EDD4655.png"  transform="matrix(0.2392 0 0 0.2392 -3.9766 -2.6494)">
		</image>
		<g>
			<g>
				
					<linearGradient id="SVGID_2_" gradientUnits="userSpaceOnUse" x1="160.3428" y1="35.3052" x2="451.6561" y2="-249.3044" gradientTransform="matrix(1 0 0 -1 -162 37)">
					<stop  offset="0" style="stop-color:#BCBCBC"/>
					<stop  offset="1" style="stop-color:#A7A7A7"/>
				</linearGradient>
				<path fill="url(#SVGID_2_)" d="M0,0v288h288.001V0H0z M265.104,265.182H23.497V23.435h241.606V265.182L265.104,265.182z"/>
			</g>
		</g>
	</g>
	<g>
		<g opacity="0.1">
			<path fill="#010101" d="M75.702,83.75c7.773-1.448,18.548-2.533,33.204-2.533c15.899,0,27.557,3.434,35.15,9.941
				c7.062,5.966,11.657,15.549,11.657,26.938c0,11.57-3.529,21.153-10.245,27.661c-8.652,8.86-22.252,13.017-37.619,13.017
				c-4.061,0-7.771-0.181-10.598-0.723v45.92h-21.55L75.702,83.75L75.702,83.75z M97.252,140.516
				c2.65,0.723,6.185,0.902,10.598,0.902c16.25,0,26.142-8.134,26.142-22.417c0-13.559-9.186-20.789-24.2-20.789
				c-6.002,0-10.241,0.541-12.539,1.083L97.252,140.516L97.252,140.516z"/>
		</g>
		<g>
			
				<linearGradient id="SVGID_3_" gradientUnits="userSpaceOnUse" x1="236.9385" y1="-104.2695" x2="380.3331" y2="-104.2695" gradientTransform="matrix(1 0 0 -1 -162 37)">
				<stop  offset="0" style="stop-color:#BCBCBC"/>
				<stop  offset="1" style="stop-color:#A7A7A7"/>
			</linearGradient>
			<path fill="url(#SVGID_3_)" d="M75.702,82.425c7.773-1.448,18.548-2.533,33.204-2.533c15.899,0,27.557,3.434,35.15,9.941
				c7.062,5.966,11.657,15.549,11.657,26.938c0,11.57-3.529,21.153-10.245,27.661c-8.652,8.86-22.252,13.017-37.619,13.017
				c-4.061,0-7.771-0.182-10.598-0.723v45.92h-21.55L75.702,82.425L75.702,82.425z M97.252,139.19
				c2.65,0.723,6.185,0.902,10.598,0.902c16.25,0,26.142-8.134,26.142-22.417c0-13.559-9.186-20.789-24.2-20.789
				c-6.002,0-10.241,0.541-12.539,1.083L97.252,139.19L97.252,139.19z"/>
		</g>
	</g>
	<g>
		<g opacity="0.1">
			<path fill="#010101" d="M162.417,183.544c4.948,3.075,14.308,6.327,22.081,6.327c9.539,0,13.775-3.979,13.775-9.764
				c0-5.967-3.53-9.041-14.129-12.838c-16.779-5.963-23.848-15.365-23.674-25.671c0-15.545,12.549-27.661,32.506-27.661
				c9.533,0,17.84,2.533,22.782,5.243l-4.237,15.73c-3.709-2.173-10.598-5.063-18.19-5.063c-7.772,0-12.011,3.798-12.011,9.222
				c0,5.604,4.058,8.314,15.015,12.292c15.541,5.787,22.782,13.923,22.961,26.937c0,15.91-12.188,27.664-34.978,27.664
				c-10.418,0-19.783-2.713-26.133-6.327L162.417,183.544z"/>
		</g>
		<g>
			
				<linearGradient id="SVGID_4_" gradientUnits="userSpaceOnUse" x1="236.9463" y1="-121.624" x2="380.3399" y2="-121.624" gradientTransform="matrix(1 0 0 -1 -162 37)">
				<stop  offset="0" style="stop-color:#BCBCBC"/>
				<stop  offset="1" style="stop-color:#A7A7A7"/>
			</linearGradient>
			<path fill="url(#SVGID_4_)" d="M162.417,182.219c4.948,3.075,14.308,6.327,22.081,6.327c9.539,0,13.775-3.979,13.775-9.763
				c0-5.967-3.53-9.041-14.129-12.84c-16.779-5.963-23.848-15.364-23.674-25.67c0-15.545,12.549-27.661,32.506-27.661
				c9.533,0,17.84,2.533,22.782,5.243l-4.237,15.73c-3.709-2.173-10.598-5.063-18.19-5.063c-7.772,0-12.011,3.798-12.011,9.222
				c0,5.604,4.058,8.314,15.015,12.293c15.541,5.785,22.782,13.922,22.961,26.936c0,15.91-12.188,27.664-34.978,27.664
				c-10.418,0-19.783-2.713-26.133-6.326L162.417,182.219z"/>
		</g>
	</g>
</g>
</svg>
