<?xml version="1.0" encoding="utf-8"?>
<!-- Generator: Adobe Illustrator 16.0.0, SVG Export Plug-In . SVG Version: 6.00 Build 0)  -->
<!DOCTYPE svg PUBLIC "-//W3C//DTD SVG 1.1//EN" "http://www.w3.org/Graphics/SVG/1.1/DTD/svg11.dtd">
<svg version="1.1" id="Layer_1" xmlns="http://www.w3.org/2000/svg" xmlns:xlink="http://www.w3.org/1999/xlink" x="0px" y="0px"
	 width="288px" height="288px" viewBox="0 0 288 288" enable-background="new 0 0 288 288" xml:space="preserve">
<line fill="none" stroke="#000000" stroke-width="2" stroke-miterlimit="10" x1="0" y1="100.451" x2="288" y2="100.451"/>
<g>
	<path d="M68.258,55.189h25.69l68.259,174.685h-25.689l-19.083-52.603H43.548l-19.573,52.603H0L68.258,55.189z M50.888,158.189
		h59.207L80.98,76.23h-0.489L50.888,158.189z"/>
	<path d="M287.959,229.386c-3.754,2.281-8.729,3.425-14.925,3.425c-5.384,0-9.664-1.553-12.845-4.647
		c-3.182-3.095-4.771-8.073-4.771-14.923c-5.711,6.85-12.354,11.826-19.938,14.923s-15.78,4.647-24.588,4.647
		c-5.711,0-11.134-0.652-16.271-1.957c-5.139-1.304-9.584-3.383-13.334-6.237c-3.754-2.854-6.729-6.522-8.932-11.011
		c-2.2-4.483-3.303-9.907-3.303-16.271c0-7.176,1.223-13.047,3.67-17.614c2.447-4.563,5.666-8.234,9.664-11.011
		c3.995-2.771,8.563-4.931,13.701-6.483c5.139-1.547,10.396-2.813,15.779-3.791c5.708-1.141,11.133-1.996,16.271-2.568
		c5.137-0.568,9.661-1.385,13.577-2.445c3.913-1.061,7.011-2.605,9.296-4.646c2.282-2.039,3.428-5.018,3.428-8.933
		c0-4.564-0.856-8.234-2.569-11.009c-1.713-2.772-3.914-4.895-6.606-6.361c-2.688-1.469-5.711-2.447-9.052-2.937
		c-3.345-0.489-6.647-0.733-9.909-0.733c-8.808,0-16.146,1.674-22.019,5.015c-5.871,3.345-9.054,9.665-9.541,18.961h-20.797
		c0.325-7.829,1.956-14.435,4.894-19.817c2.936-5.383,6.852-9.744,11.743-13.088c4.894-3.342,10.521-5.75,16.882-7.219
		c6.36-1.467,13.047-2.201,20.063-2.201c5.707,0,11.377,0.409,17.004,1.223c5.627,0.818,10.723,2.488,15.291,5.016
		c4.564,2.531,8.234,6.078,11.009,10.643c2.772,4.568,4.159,10.521,4.159,17.86v65.08c0,4.894,0.283,8.481,0.855,10.766
		c0.569,2.286,2.484,3.425,5.75,3.425c1.957,0,4.074-0.405,6.36-1.223v16.143H287.959z M254.195,164.551
		c-1.957,1.469-4.403,2.611-7.34,3.426c-2.938,0.817-6.035,1.51-9.297,2.08c-3.266,0.572-6.729,1.063-10.397,1.467
		c-3.67,0.41-7.218,0.94-10.642,1.593c-3.428,0.651-6.69,1.468-9.787,2.444c-3.102,0.979-5.791,2.325-8.073,4.037
		c-2.286,1.713-4.121,3.877-5.505,6.483c-1.389,2.61-2.079,5.871-2.079,9.786c0,3.425,0.69,6.322,2.079,8.686
		c1.384,2.366,3.18,4.281,5.382,5.749s4.771,2.531,7.707,3.181c2.937,0.653,6.032,0.979,9.297,0.979
		c6.851,0,12.724-0.937,17.614-2.813c4.895-1.873,8.889-4.238,11.988-7.094c3.098-2.853,5.383-5.953,6.852-9.298
		c1.468-3.342,2.201-6.483,2.201-9.42V164.551L254.195,164.551z"/>
</g>
<line fill="none" stroke="#000000" stroke-width="2" stroke-miterlimit="10" x1="0" y1="55.189" x2="287.959" y2="55.189"/>
<line fill="none" stroke="#000000" stroke-width="2" stroke-miterlimit="10" x1="0" y1="229.874" x2="287.959" y2="229.874"/>
</svg>
