<?xml version="1.0" encoding="utf-8"?>
<!-- Generator: Adobe Illustrator 16.0.0, SVG Export Plug-In . SVG Version: 6.00 Build 0)  -->
<!DOCTYPE svg PUBLIC "-//W3C//DTD SVG 1.1//EN" "http://www.w3.org/Graphics/SVG/1.1/DTD/svg11.dtd">
<svg version="1.1" id="Layer_1" xmlns="http://www.w3.org/2000/svg" xmlns:xlink="http://www.w3.org/1999/xlink" x="0px" y="0px"
	 width="288px" height="288px" viewBox="-17.5 61.761 288 288" enable-background="new -17.5 61.761 288 288" xml:space="preserve">
<circle fill="#FFFFFF" cx="126.513" cy="205.771" r="144.013"/>
<g id="Layer_1_1_">
</g>
<g id="Layer_2">
	<g>
		<g>
			<path fill="#555555" d="M2.97,205.766c0,48.901,28.417,91.159,69.626,111.187L13.666,155.49
				C6.811,170.854,2.97,187.858,2.97,205.766z"/>
			<path fill="#555555" d="M209.91,199.534c0-15.269-5.484-25.842-10.189-34.072c-6.261-10.177-12.131-18.794-12.131-28.971
				c0-11.356,8.613-21.928,20.744-21.928c0.549,0,1.067,0.069,1.602,0.099c-21.979-20.135-51.263-32.431-83.424-32.431
				c-43.16,0-81.131,22.144-103.221,55.686c2.898,0.087,5.63,0.146,7.95,0.146c12.922,0,32.925-1.567,32.925-1.567
				c6.66-0.393,7.445,9.389,0.792,10.177c0,0-6.693,0.787-14.14,1.177l44.988,133.815l27.036-81.082l-19.248-52.737
				c-6.653-0.391-12.956-1.178-12.956-1.178c-6.657-0.391-5.876-10.569,0.781-10.177c0,0,20.402,1.568,32.541,1.568
				c12.92,0,32.925-1.568,32.925-1.568c6.665-0.393,7.447,9.39,0.792,10.177c0,0-6.707,0.787-14.14,1.178l44.646,132.802
				l12.322-41.177C205.845,222.382,209.91,210.109,209.91,199.534z"/>
			<path fill="#555555" d="M128.678,216.574L91.611,324.28c11.067,3.256,22.771,5.035,34.899,5.035
				c14.385,0,28.182-2.489,41.024-7.005c-0.331-0.527-0.632-1.09-0.879-1.7L128.678,216.574z"/>
			<path fill="#555555" d="M234.911,146.496c0.532,3.937,0.833,8.16,0.833,12.703c0,12.537-2.342,26.63-9.394,44.251
				l-37.735,109.104c36.728-21.418,61.431-61.208,61.431-106.786C250.047,184.291,244.561,164.094,234.911,146.496z"/>
			<path fill="#555555" d="M126.511,61.761C47.104,61.761-17.5,126.363-17.5,205.766c0,79.415,64.604,144.014,144.011,144.014
				c79.402,0,144.016-64.599,144.016-144.014C270.524,126.363,205.913,61.761,126.511,61.761z M126.511,343.178
				c-75.764,0-137.407-61.643-137.407-137.412c0-75.763,61.641-137.4,137.407-137.4c75.761,0,137.399,61.638,137.399,137.4
				C263.91,281.536,202.272,343.178,126.511,343.178z"/>
		</g>
	</g>
</g>
</svg>
